<?xml version="1.0" encoding="UTF-8"?>
<svg xmlns="http://www.w3.org/2000/svg" xmlns:xlink="http://www.w3.org/1999/xlink" width="1125pt" height="1124.99995pt" viewBox="0 0 1125 1124.99995" version="1.2">
<defs>
<clipPath id="clip1">
  <path d="M 281 64.464844 L 1035.183594 64.464844 L 1035.183594 819 L 281 819 Z M 281 64.464844 "/>
</clipPath>
</defs>
<g id="surface1">
<path style=" stroke:none;fill-rule:nonzero;fill:rgb(0%,0%,0%);fill-opacity:1;" d="M 455.925781 705.859375 L 393.875 643.808594 L 267.902344 769.78125 L 329.949219 831.832031 Z M 455.925781 705.859375 "/>
<path style=" stroke:none;fill-rule:nonzero;fill:rgb(0%,0%,0%);fill-opacity:1;" d="M 68.949219 898.328125 C 41.53125 925.742188 41.53125 970.234375 68.949219 997.691406 L 102.058594 1030.761719 C 129.515625 1058.214844 173.964844 1058.214844 201.382812 1030.761719 L 378.808594 853.296875 C 406.261719 825.84375 406.261719 781.390625 378.84375 753.972656 L 345.738281 720.863281 C 318.320312 693.449219 273.789062 693.449219 246.375 720.863281 Z M 68.949219 898.328125 "/>
<g clip-path="url(#clip1)" clip-rule="nonzero">
<path style=" stroke:none;fill-rule:nonzero;fill:rgb(0%,0%,0%);fill-opacity:1;" d="M 658.402344 64.003906 C 866.816406 64.003906 1035.707031 232.890625 1035.707031 441.308594 C 1035.707031 649.726562 866.816406 818.652344 658.402344 818.652344 C 449.984375 818.652344 281.058594 649.726562 281.058594 441.308594 C 281.058594 232.890625 449.984375 64.003906 658.402344 64.003906 Z M 658.402344 748.820312 C 828.289062 748.820312 965.949219 611.195312 965.949219 441.308594 C 965.949219 271.421875 828.289062 133.796875 658.402344 133.796875 C 488.515625 133.796875 350.851562 271.421875 350.851562 441.308594 C 350.851562 611.195312 488.515625 748.820312 658.402344 748.820312 Z M 658.402344 748.820312 "/>
</g>
<path style=" stroke:none;fill-rule:nonzero;fill:rgb(0%,0%,0%);fill-opacity:1;" d="M 581.03125 628.078125 C 731.539062 628.078125 853.628906 506.027344 853.628906 355.480469 C 853.628906 351.480469 853.207031 347.558594 853.011719 343.5625 C 872.894531 375.707031 884.546875 413.507812 884.546875 454.035156 C 884.546875 570.433594 790.179688 664.761719 673.820312 664.761719 C 628.871094 664.761719 587.339844 650.609375 553.078125 626.652344 C 562.269531 627.652344 571.613281 628.078125 581.03125 628.078125 Z M 581.03125 628.078125 "/>
</g>
</svg>
