<?xml version="1.0" encoding="UTF-8"?>
<svg xmlns="http://www.w3.org/2000/svg" xmlns:xlink="http://www.w3.org/1999/xlink" width="1440pt" height="809.999993pt" viewBox="0 0 1440 809.999993" version="1.2">
<defs>
<clipPath id="clip1">
  <path d="M 199.503906 20.226562 L 555.753906 20.226562 L 555.753906 668.015625 L 199.503906 668.015625 Z M 199.503906 20.226562 "/>
</clipPath>
</defs>
<g id="surface1">
<g clip-path="url(#clip1)" clip-rule="nonzero">
<path style=" stroke:none;fill-rule:evenodd;fill:rgb(100%,87.449646%,16.859436%);fill-opacity:1;" d="M 274.820312 654.589844 C 290.210938 657.957031 305.226562 658.003906 322.75 658.277344 C 322.75 655.328125 322.75 652.378906 322.75 649.425781 C 305.332031 650.269531 282.378906 639.082031 274.820312 654.589844 Z M 425.980469 647.214844 C 425.214844 649.152344 425.097656 651.742188 425.242188 654.589844 C 438.074219 656.710938 455.808594 652.675781 470.957031 652.378906 C 464.859375 635.675781 442.078125 650.808594 425.980469 647.214844 Z M 288.09375 639.101562 C 305.761719 641.300781 341.078125 648.5 325.699219 625.082031 C 325.441406 621.039062 332.164062 621.820312 332.335938 616.230469 C 332.460938 612.121094 327.164062 610.738281 327.910156 606.640625 C 328.675781 602.441406 336.660156 602.585938 336.761719 597.789062 C 336.957031 588.128906 318.292969 592.824219 309.476562 594.101562 C 303.035156 591.941406 298.261719 588.109375 291.042969 586.722656 C 291.554688 605.679688 289.359375 621.925781 288.09375 639.101562 Z M 415.65625 585.25 C 412.769531 588.011719 411.398438 592.300781 411.96875 598.527344 C 414.0625 602.582031 422.851562 599.9375 423.03125 605.902344 C 421.835938 609.875 415.25 608.445312 417.132812 615.492188 C 420.25 618.277344 429.386719 615.035156 429.667969 620.660156 C 424.78125 624.289062 417.414062 632.941406 424.503906 639.835938 C 435.449219 642.152344 445.796875 638.21875 456.210938 637.625 C 458.394531 616.800781 455.597656 595.105469 456.210938 573.445312 C 439.613281 574.351562 436.042969 590.359375 415.65625 585.25 Z M 452.523438 460.582031 C 447.878906 466.257812 438.324219 467.03125 431.878906 470.910156 C 432.675781 481.917969 434.925781 491.464844 438.515625 499.679688 C 454.851562 502.117188 466.070312 493.410156 477.59375 488.613281 C 470.375 480.097656 473.296875 461.441406 461.371094 457.628906 C 460.996094 449.6875 457.101562 440.761719 451.789062 435.5 C 448.902344 441.796875 452.042969 452.933594 452.523438 460.582031 Z M 267.449219 456.894531 C 262.144531 464.621094 260.917969 476.425781 257.125 485.660156 C 265.378906 490.683594 276.261719 493.074219 286.617188 495.988281 C 288.492188 485.566406 291.570312 476.355469 295.464844 467.957031 C 292.328125 465.441406 285.246094 466.871094 284.40625 462.058594 C 286.816406 453.402344 291.023438 446.546875 291.042969 435.5 C 276.921875 433.125 283.066406 460.75 267.449219 456.894531 Z M 456.949219 431.8125 C 461.722656 436.378906 463.285156 444.160156 467.273438 449.515625 C 472 445.390625 477.445312 441.988281 483.496094 439.1875 C 482.363281 436.40625 476.328125 435.355469 479.074219 431.074219 C 483.867188 431.195312 486.675781 433.300781 488.65625 436.238281 C 491.433594 435.308594 496.695312 432.996094 498.980469 434.027344 C 492.882812 443.660156 480.207031 446.722656 470.957031 453.203125 C 475.808594 463.105469 479.574219 474.097656 482.753906 485.660156 C 500.59375 475.636719 523.371094 459.511719 531.425781 440.664062 C 532.996094 436.988281 534.375 431.933594 533.640625 428.125 C 531.921875 419.261719 513.648438 408.144531 503.40625 400.832031 C 487.859375 389.730469 473.28125 381.453125 456.949219 375.75 C 457.027344 395.957031 456.421875 412.289062 456.949219 431.8125 Z M 291.042969 370.585938 C 268.972656 377.433594 241.160156 389.980469 225.417969 408.203125 C 220.328125 414.09375 213.242188 422.582031 210.667969 429.597656 C 205.117188 444.746094 215.898438 455.414062 224.679688 464.269531 C 232.894531 472.554688 241.5 477.1875 251.222656 482.710938 C 255.089844 470.597656 257.058594 456.582031 265.234375 448.777344 C 261.222656 437.773438 245.449219 434.667969 242.375 425.171875 C 249.898438 425.269531 254.074219 428.714844 259.335938 431.074219 C 259.566406 428.027344 265.589844 424.863281 267.449219 428.125 C 268.113281 432.476562 263.214844 431.265625 263.023438 434.761719 C 266.875 438.285156 268.957031 443.578125 272.609375 447.304688 C 275.085938 436.925781 282.324219 425.355469 293.992188 428.863281 C 295.722656 410.335938 296.941406 386.292969 291.78125 370.585938 C 291.535156 370.585938 291.289062 370.585938 291.042969 370.585938 Z M 299.890625 369.847656 C 299.226562 399.730469 302.875 434.867188 292.515625 458.367188 C 294.835938 462.199219 301.605469 461.570312 302.839844 466.484375 C 299.855469 478.109375 291.660156 491.453125 290.304688 504.105469 C 287.765625 527.765625 293.148438 555.457031 291.78125 580.820312 C 300.140625 579.839844 305.183594 587.019531 313.164062 587.460938 C 329.421875 588.363281 347.191406 579.128906 366.253906 580.820312 C 365.367188 513.605469 365.632812 441.34375 364.042969 371.320312 C 343.449219 372.140625 320.328125 371.390625 299.890625 369.847656 Z M 390.585938 371.320312 C 390.074219 441.226562 390.046875 508.742188 389.847656 578.609375 C 402.699219 577.164062 419.863281 577.53125 431.878906 579.347656 C 438.113281 573.292969 444.300781 567.1875 456.210938 566.808594 C 455.339844 545.902344 455.929688 523.527344 456.210938 504.84375 C 449.128906 506.652344 440.695312 509.28125 434.828125 505.578125 C 430.136719 502.617188 423.289062 477.914062 425.242188 470.167969 C 427.613281 460.769531 439.730469 462.328125 445.886719 459.105469 C 446.679688 451.636719 442.847656 442.878906 444.414062 436.238281 C 445.640625 431.046875 449.703125 431.066406 452.523438 427.386719 C 450.398438 410.464844 453.359375 393.023438 452.523438 375.007812 C 448.105469 374.515625 446.878906 370.824219 444.414062 368.371094 C 427.015625 369.898438 409.09375 370.898438 390.585938 371.320312 Z M 295.464844 340.339844 C 294.726562 340.335938 294.589844 340.9375 293.992188 341.074219 C 293.605469 346.378906 299.117188 345.789062 299.152344 350.667969 C 298.800781 354.25 293.679688 353.058594 294.730469 358.042969 C 296.015625 360.691406 300.417969 360.222656 299.890625 364.683594 C 322.21875 363.675781 348.5625 364.0625 368.464844 366.160156 C 369.746094 437.792969 373.328125 509.277344 371.414062 580.085938 C 376.191406 579.453125 380.410156 578.265625 386.164062 578.609375 C 384.960938 507.792969 383.03125 436.933594 386.902344 367.636719 C 406.664062 364.042969 428.761719 362.792969 451.789062 362.46875 C 453.777344 355.316406 447.746094 356.1875 447.363281 351.40625 C 448.746094 347.625 452.339844 346.054688 452.523438 341.074219 C 397.328125 344.222656 344.246094 342.042969 295.464844 340.339844 Z M 464.320312 311.570312 C 443.605469 314.429688 418.183594 315.855469 393.535156 318.949219 C 363.441406 322.722656 337.207031 329.648438 308.738281 330.011719 C 297.734375 330.152344 287.738281 322.65625 277.03125 326.324219 C 275.742188 334.144531 285.355469 333.972656 289.566406 334.4375 C 297.984375 335.371094 305.859375 334.242188 314.636719 334.4375 C 362.894531 335.511719 420.636719 338.925781 465.0625 332.222656 C 466.507812 327.675781 468.160156 315.777344 465.0625 311.570312 C 464.8125 311.570312 464.566406 311.570312 464.320312 311.570312 Z M 222.46875 285.015625 C 225.863281 286.050781 228.769531 289.144531 232.054688 291.652344 C 235.027344 293.925781 239.015625 297.746094 240.902344 296.816406 C 241.089844 278.1875 240.140625 260.695312 239.425781 242.964844 C 231.144531 242.644531 226.128906 239.054688 218.042969 238.539062 C 218.832031 254.71875 220.035156 270.480469 222.46875 285.015625 Z M 388.375 312.308594 C 393.722656 310.777344 400.117188 310.285156 406.808594 310.09375 C 405.738281 285.652344 405.792969 257.960938 406.808594 231.902344 C 406.316406 231.902344 405.824219 231.902344 405.335938 231.902344 C 380.972656 239.496094 393.535156 287.960938 388.375 312.308594 Z M 411.96875 229.6875 C 413.4375 255.285156 412.300781 280.953125 412.707031 308.621094 C 420.210938 308.929688 432.304688 307.617188 440.726562 306.40625 C 440.644531 280 439.027344 255.605469 439.988281 227.476562 C 430.714844 228.277344 420.476562 228.113281 411.96875 229.6875 Z M 489.394531 227.476562 C 493.324219 243.761719 493.195312 266.3125 492.34375 285.015625 C 492.136719 289.5625 489.144531 296.964844 493.816406 299.769531 C 498.113281 294.5 495.667969 285.644531 496.03125 277.636719 C 496.304688 271.578125 497.519531 265.105469 497.507812 259.191406 C 497.476562 246.195312 497.425781 230.382812 490.132812 225.261719 C 489.640625 225.261719 489.148438 225.261719 488.65625 225.261719 C 488.625 226.273438 489.003906 226.882812 489.394531 227.476562 Z M 445.152344 226.738281 C 446.328125 252.609375 446.652344 279.332031 446.625 306.40625 C 455.257812 305.453125 463.667969 304.277344 472.433594 303.457031 C 475.007812 277.996094 470.21875 250.304688 472.433594 225.261719 C 463.28125 225.695312 453.976562 225.96875 445.152344 226.738281 Z M 476.859375 224.523438 C 479.269531 244.597656 477.554688 278.828125 480.542969 301.980469 C 488.636719 302.832031 485.507812 293.054688 485.707031 288.703125 C 486.597656 269.082031 489.792969 238.910156 482.019531 224.523438 C 480.300781 224.523438 478.578125 224.523438 476.859375 224.523438 Z M 249.75 203.867188 C 249.484375 192.398438 243.214844 174.386719 237.214844 172.886719 C 232.503906 171.707031 227.671875 175.933594 221.730469 178.789062 C 218.542969 193.089844 219.128906 214.160156 220.253906 230.421875 C 239.492188 240.40625 250.246094 225.367188 249.75 203.867188 Z M 246.800781 169.9375 C 252.96875 181.105469 259.597656 200.066406 255.648438 217.144531 C 253.984375 224.347656 247.390625 230.019531 248.273438 234.851562 C 253.226562 235.359375 257.042969 231.207031 259.335938 227.476562 C 268.859375 211.976562 267.792969 180.324219 256.386719 168.457031 C 253.257812 169.019531 250.734375 170.183594 246.800781 169.9375 Z M 234.265625 107.96875 C 228.527344 111.328125 221.394531 113.292969 215.09375 116.085938 C 215.535156 134.820312 218.527344 151.011719 218.042969 170.671875 C 222.097656 169.3125 229.886719 165.316406 237.214844 164.773438 C 236.769531 146.1875 237.492188 121.386719 234.265625 107.96875 Z M 309.476562 84.363281 C 309.4375 83.917969 309.367188 83.492188 308.738281 83.625 C 286.78125 86.433594 261.644531 84.996094 240.164062 86.578125 C 242.246094 111.050781 243.40625 136.445312 243.851562 162.558594 C 249.75 164.066406 256.34375 158.582031 261.546875 161.082031 C 264.144531 162.332031 267.101562 170.390625 268.921875 175.097656 C 277.847656 198.25 271.832031 233.730469 254.910156 242.226562 C 251.203125 241.714844 249.773438 243.480469 246.0625 242.964844 C 247.449219 265.441406 247.96875 289.265625 246.800781 312.308594 C 267.742188 316.4375 290.746094 318.503906 311.6875 322.632812 C 318.972656 247.039062 313.160156 158.273438 309.476562 84.363281 Z M 543.960938 101.332031 C 543.75 90.824219 544.464844 74.886719 535.109375 74.777344 C 532.054688 74.738281 527.234375 76.753906 523.3125 76.984375 C 495.527344 78.652344 462.851562 77.265625 429.667969 79.9375 C 391.25 83.035156 348.03125 82.359375 315.375 80.675781 C 319.890625 154.609375 324.964844 244.007812 319.0625 321.898438 C 341.285156 319.539062 362.945312 316.617188 383.214844 312.308594 C 387.027344 284.644531 377.734375 252.65625 389.847656 234.851562 C 399.300781 220.964844 429.101562 220.488281 451.789062 219.359375 C 466.886719 218.609375 482.898438 216.871094 496.03125 219.359375 C 508.667969 236.851562 502.585938 271.410156 502.667969 298.292969 C 517.085938 296 530.394531 292.585938 544.699219 290.179688 C 543.8125 226.601562 545.191406 163.847656 543.960938 101.332031 Z M 338.234375 46.003906 C 340.972656 47.527344 340.164062 44.949219 343.394531 45.265625 C 349.269531 53.410156 353.765625 62.925781 355.929688 74.777344 C 358.238281 74.625 361.34375 75.269531 362.566406 74.035156 C 361.117188 58.746094 348.136719 49.703125 352.246094 33.464844 C 342.582031 27.4375 329.570312 37.585938 338.234375 46.003906 Z M 439.988281 37.890625 C 447.765625 47.734375 431.300781 62.480469 434.089844 71.824219 C 438.1875 60.429688 441.925781 48.679688 449.574219 40.839844 C 452.808594 40.523438 451.996094 43.101562 454.738281 41.578125 C 457.464844 37.773438 456.269531 29.996094 453.261719 27.5625 C 444.597656 26.761719 439.492188 29.53125 439.988281 37.890625 Z M 443.675781 68.875 C 475.570312 70.691406 512.15625 65.761719 542.484375 68.136719 C 555.480469 76.726562 553.484375 111.539062 553.542969 134.527344 C 553.554688 137.253906 552.972656 139.832031 552.8125 142.640625 C 550.363281 183.882812 555.90625 236.25 554.28125 273.210938 C 553.957031 280.578125 552.355469 287.496094 555.757812 293.128906 C 547.371094 302.566406 531.203125 302.1875 517.414062 304.929688 C 503.40625 307.71875 488.859375 310.601562 475.382812 312.308594 C 475.316406 326.746094 476.085938 342.023438 461.371094 341.8125 C 456.0625 349.535156 463.488281 357.511719 459.160156 366.894531 C 476.796875 373.855469 493.359375 381.324219 510.042969 393.453125 C 519.621094 400.417969 536.496094 412.085938 540.273438 421.484375 C 544.371094 431.679688 539.089844 445.140625 533.640625 453.945312 C 519.765625 476.324219 489.488281 494.710938 464.320312 504.105469 C 461.59375 548.296875 466.644531 589.964844 465.0625 633.933594 C 470.847656 640.523438 482.773438 644.625 479.074219 658.277344 C 470.558594 663.101562 451.792969 662.777344 437.777344 663.445312 C 428.820312 663.867188 421.222656 663.726562 417.871094 656.804688 C 421.574219 643.101562 407.925781 638.460938 414.183594 625.082031 C 407.078125 622.277344 410.640625 616.023438 409.019531 608.117188 C 408.433594 605.261719 404.546875 602.964844 403.859375 600.003906 C 402.972656 596.191406 404.167969 591.761719 404.597656 587.460938 C 382.785156 586.792969 365.242188 590.382812 345.609375 591.890625 C 347.097656 597.273438 345.511719 607.203125 338.972656 608.855469 C 344.410156 614.050781 340.960938 624.160156 336.023438 627.296875 C 338.125 631.332031 338.839844 635.585938 338.234375 639.101562 C 336.976562 646.382812 327.449219 648.917969 330.125 661.96875 C 328.167969 670.035156 307.117188 668.355469 291.78125 666.394531 C 279.460938 664.820312 267.101562 663.148438 265.972656 656.066406 C 264.746094 648.382812 272.414062 641.53125 279.980469 639.101562 C 285.023438 598.40625 283.433594 551.078125 283.667969 505.578125 C 278.128906 501.34375 272.519531 502.636719 265.972656 500.414062 C 261.953125 499.050781 258.882812 495.054688 254.175781 493.039062 C 252.765625 492.4375 250.667969 493.53125 249.011719 493.039062 C 246.871094 492.402344 241.707031 489.070312 238.691406 487.136719 C 229.507812 481.257812 222.554688 475.847656 215.09375 467.21875 C 206.601562 457.402344 195.3125 446.4375 201.082031 428.125 C 203.976562 418.9375 212.703125 408.128906 219.519531 400.832031 C 236.035156 383.140625 261.539062 369.878906 286.617188 362.46875 C 284.679688 353.054688 289.234375 349.582031 285.144531 341.8125 C 275.136719 341.761719 266.910156 336.773438 270.394531 325.585938 C 258.386719 324.566406 246.3125 323.617188 239.425781 317.472656 C 238.542969 315.402344 238.613281 312.382812 238.691406 309.359375 C 233.890625 302.660156 218.734375 297.171875 215.09375 289.441406 C 209.945312 278.507812 209.238281 238.738281 209.195312 219.359375 C 209.171875 208.429688 211.328125 197.238281 210.667969 187.636719 C 210.449219 184.464844 208.699219 182.109375 208.457031 179.527344 C 207.96875 174.277344 209.167969 169.382812 209.195312 164.035156 C 209.292969 146.152344 205.757812 128.371094 205.507812 112.398438 C 211.625 104.992188 223.707031 103.554688 233.527344 99.855469 C 234.207031 93.164062 231.3125 86.484375 233.527344 80.675781 C 254.347656 72.445312 281.410156 79.625 305.050781 76.25 C 308.554688 75.75 312 73.109375 315.375 72.5625 C 325.714844 70.886719 336.492188 75.109375 346.347656 73.300781 C 345.429688 66.105469 342.089844 61.328125 339.710938 55.597656 C 329.734375 52.1875 325.0625 44.4375 327.171875 34.9375 C 331.046875 17.511719 369.152344 20.382812 358.878906 41.578125 C 364.09375 49.890625 367.132812 60.375 369.203125 71.824219 C 387.054688 71.125 405.871094 72.394531 424.503906 71.089844 C 428.09375 62.871094 429.671875 52.652344 434.089844 45.265625 C 417.300781 17.347656 473.371094 8.300781 462.847656 41.578125 C 459.40625 52.460938 444.046875 53.339844 443.675781 68.875 "/>
</g>
<path style=" stroke:none;fill-rule:evenodd;fill:rgb(100%,87.449646%,16.859436%);fill-opacity:1;" d="M 502.667969 187.636719 C 495.625 180.246094 494.6875 156.648438 499.71875 144.851562 C 501.167969 141.457031 504.757812 139.996094 503.40625 137.476562 C 488.753906 142.515625 481.21875 184.355469 502.667969 187.636719 Z M 515.941406 186.898438 C 539.480469 189 538.125 132.214844 517.414062 137.476562 C 502.21875 141.332031 497.15625 185.222656 515.941406 186.898438 Z M 508.566406 129.359375 C 532.03125 126.382812 542.996094 141.703125 540.273438 166.980469 C 539.347656 175.613281 535.746094 185.136719 530.6875 189.117188 C 521.679688 196.195312 496.890625 198.019531 488.660156 189.851562 C 475.894531 177.191406 483.371094 142.105469 493.820312 133.789062 C 497.75 130.65625 500.222656 130.417969 508.566406 129.359375 "/>
<path style=" stroke:none;fill-rule:evenodd;fill:rgb(100%,87.449646%,16.859436%);fill-opacity:1;" d="M 397.960938 200.179688 C 418.09375 198.511719 418.785156 159.34375 407.546875 145.589844 C 403.726562 144.738281 400.222656 143.574219 395.011719 144.113281 C 381.199219 152.703125 373.339844 202.21875 397.960938 200.179688 Z M 375.101562 146.328125 C 365.152344 158.480469 359.980469 199 381.003906 200.179688 C 372.082031 190.003906 373.988281 171.378906 378.054688 158.867188 C 379.992188 152.898438 384.644531 147.464844 383.953125 144.113281 C 380.972656 144.824219 378.082031 145.621094 375.101562 146.328125 Z M 392.0625 136.738281 C 397.683594 136.644531 404.304688 136.058594 409.019531 138.210938 C 428.996094 147.34375 424.597656 199.351562 404.597656 206.078125 C 401.585938 207.09375 398.332031 206.191406 395.011719 206.816406 C 390.800781 207.613281 387.734375 209.765625 384.6875 209.765625 C 368.28125 209.773438 358.777344 194.960938 358.878906 175.835938 C 358.960938 161.152344 364.742188 143.988281 371.414062 139.691406 C 376.675781 136.296875 383.113281 136.882812 392.0625 136.738281 "/>
<path style=" stroke:none;fill-rule:evenodd;fill:rgb(100%,87.449646%,16.859436%);fill-opacity:1;" d="M 520.363281 166.984375 C 521.417969 162.308594 522.480469 152.382812 516.675781 152.230469 C 515.527344 155.871094 511.96875 168.707031 520.363281 166.984375 Z M 515.941406 147.070312 C 528.964844 142.695312 530.722656 172.542969 519.625 173.625 C 506.457031 174.90625 506.382812 150.277344 515.941406 147.070312 "/>
<path style=" stroke:none;fill-rule:evenodd;fill:rgb(100%,87.449646%,16.859436%);fill-opacity:1;" d="M 398.699219 183.214844 C 403.4375 177.515625 401.960938 163.421875 397.960938 158.132812 C 394.746094 162.875 390.59375 180.539062 398.699219 183.214844 Z M 397.222656 152.96875 C 407.332031 149.824219 413.382812 192.085938 395.75 188.378906 C 384.214844 185.953125 388.984375 155.535156 397.222656 152.96875 "/>
<path style=" stroke:none;fill-rule:evenodd;fill:rgb(100%,87.449646%,16.859436%);fill-opacity:1;" d="M 403.859375 351.40625 C 387.703125 354.941406 360.523438 353.730469 338.972656 353.617188 C 334.324219 353.59375 327.367188 355.347656 324.960938 350.667969 C 326.777344 347.089844 332 349.296875 335.285156 349.191406 C 356.640625 348.515625 383.84375 347.003906 403.859375 351.40625 "/>
</g>
</svg>
